<svg xmlns="http://www.w3.org/2000/svg" width="59" height="59" fill="none" viewBox="0 0 59 59"><path fill="#EFFF00" d="M0 0h59v59H0z"/><path fill="#111" d="M9.111 52.688c-2.209 0-4.005-1.775-4.004-3.984 0-1.242.005-2.464.023-3.687.005-.365.227-.75.417-1.084 3.105-5.426 6.238-10.833 9.313-16.275.622-1.097 1.405-1.55 2.655-1.52 2.732.063 5.463-.024 8.195.037 1.354.029 2.21-.492 2.853-1.682 1.34-2.478 2.74-4.926 4.217-7.325.347-.56 1.087-1.226 1.663-1.242 2.689-.073 5.379-.074 8.095-.067 2.21.005 4 1.8 4 4.008v4.882a1.39 1.39 0 0 1-1.39 1.391c-4.893 0-9.782.048-14.67-.026-1.508-.024-2.434.478-3.182 1.803-4.484 7.933-9.046 15.82-13.546 23.742-.45.791-.947 1.095-1.859 1.066a88.84 88.84 0 0 0-2.78-.037Z"/><path fill="#111" d="M54.102 45.086c0 2.209-1.775 4.005-3.984 4.004-1.242 0-2.464-.005-3.687-.023-.364-.005-.75-.227-1.084-.418-5.426-3.104-10.833-6.237-16.275-9.313-1.097-.62-1.55-1.404-1.52-2.654.063-2.732-.024-5.463.037-8.195.029-1.354-.492-2.21-1.682-2.853a150.046 150.046 0 0 1-7.325-4.217c-.56-.347-1.226-1.087-1.242-1.664-.073-2.688-.074-5.378-.067-8.094.006-2.21 1.8-4 4.009-4h4.881a1.39 1.39 0 0 1 1.391 1.39c0 4.893.048 9.782-.026 14.67-.024 1.508.479 2.433 1.803 3.182 7.933 4.484 15.82 9.046 23.743 13.546.79.45 1.094.947 1.065 1.859a88.536 88.536 0 0 0-.037 2.78Z"/></svg>