<svg xmlns="http://www.w3.org/2000/svg" width="74" height="93" fill="none" viewBox="0 0 74 93"><path fill="#EFFF00" d="M4.007 67.624a3.984 3.984 0 0 1-4.005-3.982 458.85 458.85 0 0 1 .033-7.543c.008-.548.341-1.127.627-1.628 4.662-8.147 9.367-16.267 13.985-24.44.933-1.647 2.108-2.326 3.986-2.282 4.102.095 8.204-.036 12.306.055 2.032.044 3.319-.738 4.284-2.525a225.284 225.284 0 0 1 6.333-10.999c.52-.842 1.632-1.842 2.498-1.866 4.698-.127 9.398-.109 14.162-.095a4.01 4.01 0 0 1 4 4.008v9.337a2.089 2.089 0 0 1-2.089 2.089c-7.346 0-14.688.071-22.03-.04-2.263-.036-3.652.719-4.776 2.708-6.734 11.912-13.584 23.757-20.342 35.653-.675 1.187-1.421 1.644-2.791 1.6-2.036-.064-4.075-.061-6.181-.05Z"/><path fill="#EFFF00" d="M73.58 58.209a3.984 3.984 0 0 1-3.982 4.005 458.85 458.85 0 0 1-7.543-.033c-.548-.008-1.128-.342-1.628-.627-8.148-4.662-16.268-9.367-24.44-13.985-1.647-.933-2.326-2.109-2.282-3.987.095-4.102-.036-8.203.055-12.305.044-2.033-.738-3.32-2.525-4.284a225.288 225.288 0 0 1-11-6.333c-.84-.52-1.841-1.633-1.865-2.498-.128-4.698-.11-9.398-.095-14.162a4.01 4.01 0 0 1 4.007-4h9.338c1.153 0 2.088.935 2.088 2.089 0 7.345.072 14.687-.04 22.029-.035 2.263.72 3.653 2.709 4.777 11.912 6.734 23.756 13.583 35.652 20.341 1.188.675 1.644 1.422 1.6 2.792-.063 2.036-.06 4.075-.049 6.18Z"/><path fill="#fff" d="M63.067 92.094a.965.965 0 0 1-.701-.288.962.962 0 0 1-.294-.706.94.94 0 0 1 .294-.696.956.956 0 0 1 .7-.293c.272 0 .506.098.702.293a.94.94 0 0 1 .293.696c0 .183-.047.35-.14.502-.089.15-.208.269-.357.358a.947.947 0 0 1-.497.135ZM53.771 92V81.818h6.383v1.323h-4.847v3.102h4.514v1.317h-4.514v3.118h4.907V92h-6.443Zm-9.023 0V81.818h3.629c.789 0 1.443.136 1.964.408.523.272.914.648 1.173 1.129.258.477.388 1.029.388 1.655 0 .623-.131 1.172-.393 1.646-.259.47-.65.837-1.173 1.098-.52.262-1.175.393-1.964.393h-2.75v-1.322h2.61c.498 0 .902-.072 1.214-.214a1.41 1.41 0 0 0 .69-.622c.147-.271.22-.598.22-.979 0-.385-.075-.718-.224-1a1.444 1.444 0 0 0-.691-.646c-.312-.152-.721-.228-1.228-.228h-1.93V92h-1.535Zm5.026-4.594L52.289 92h-1.75l-2.465-4.594h1.7ZM35.805 92h-1.63l3.663-10.182h1.775L43.277 92h-1.63l-2.88-8.332h-.079L35.805 92Zm.273-3.987h5.29v1.292h-5.29v-1.292ZM22.804 92V81.818h6.384v1.323H24.34v3.102h4.515v1.317H24.34v3.118h4.907V92h-6.443Zm-11.692 0L8.288 81.818h1.616l1.984 7.885h.094l2.063-7.885h1.601l2.063 7.89h.095l1.979-7.89h1.62L18.575 92h-1.547l-2.142-7.626h-.08L12.663 92h-1.55Z"/></svg>