<svg xmlns="http://www.w3.org/2000/svg" width="611" height="112" fill="none" viewBox="0 0 611 112"><path fill="#fff" d="M404.614 98V4.91h30.045c6.606 0 12.121 1.196 16.546 3.59 4.454 2.364 7.803 5.652 10.045 9.864 2.273 4.181 3.409 8.985 3.409 14.409 0 5.424-1.136 10.212-3.409 14.363-2.242 4.152-5.576 7.394-10 9.728-4.424 2.333-9.909 3.5-16.455 3.5h-25.59V52.59h25.363c4.849 0 8.879-.803 12.091-2.41 3.243-1.605 5.652-3.893 7.227-6.863 1.606-2.97 2.409-6.485 2.409-10.545s-.803-7.606-2.409-10.637c-1.606-3.06-4.03-5.424-7.272-7.09-3.212-1.667-7.273-2.5-12.182-2.5h-21.318V98h-8.5Zm41.045-42 22.909 42h-9.818l-22.682-42h9.591ZM320.75 98h-8.909l33.864-93.09h9.091L388.659 98h-8.909l-29.182-82.046h-.636L320.75 98Zm6.409-35.682h46.182v7.636h-46.182v-7.636ZM268.909.545l-30 111.455h-7.591l30-111.455h7.591ZM128.364 98V4.91h54v7.635h-45.5v35.046H179.5v7.636h-42.636v35.137h46.409V98h-54.909ZM25.546 98 .046 4.91h8.636l21.09 80.044h.728L51.59 4.91h9.82L82.5 84.954h.727L104.318 4.91H113L87.5 98h-9.09L56.817 19.046h-.59L34.635 98h-9.09Z"/><path fill="#E5E0FF" d="M511.01 97.933a3.986 3.986 0 0 1-4.005-3.985c-.007-4.177-.016-8.188.044-12.202.011-.77.479-1.583.88-2.285 6.544-11.437 13.148-22.835 19.631-34.306 1.309-2.313 2.959-3.266 5.595-3.205 5.758.134 11.515-.05 17.273.078 2.854.062 4.659-1.036 6.014-3.544 2.826-5.223 5.774-10.384 8.89-15.44.73-1.18 2.29-2.585 3.505-2.619 7.125-.193 14.254-.147 21.494-.128 2.209.005 4 1.796 4 4.006v14.721a2.932 2.932 0 0 1-2.932 2.932c-10.311 0-20.616.1-30.922-.056-3.177-.05-5.128 1.009-6.705 3.801-9.453 16.721-19.067 33.347-28.553 50.045-.948 1.667-1.996 2.308-3.919 2.247-3.375-.106-6.756-.081-10.29-.06Z"/><path fill="#E5E0FF" d="M610.293 86.321c.013 2.21-1.776 4-3.985 4.005-4.177.007-8.188.016-12.202-.044-.769-.01-1.583-.48-2.285-.88-11.437-6.544-22.835-13.148-34.306-19.63-2.313-1.31-3.266-2.96-3.204-5.596.133-5.758-.05-11.515.078-17.273.061-2.854-1.037-4.66-3.545-6.014-5.223-2.826-10.384-5.774-15.439-8.89-1.181-.73-2.586-2.29-2.619-3.505-.194-7.125-.148-14.254-.129-21.494a4.01 4.01 0 0 1 4.006-4h14.722a2.931 2.931 0 0 1 2.931 2.932c0 10.31.101 20.616-.055 30.922-.051 3.177 1.008 5.128 3.801 6.705 16.72 9.453 33.346 19.067 50.045 28.553 1.666.948 2.307 1.996 2.246 3.919-.106 3.375-.081 6.756-.06 10.29Z"/></svg>